<?xml version="1.0" encoding="UTF-8"?>
<svg id="Layer_1" data-name="Layer 1" xmlns="http://www.w3.org/2000/svg" viewBox="0 0 976.74 321.03">
  <g>
    <path class="cls-1" d="M66.65,164.72h19.56v113.09c0,13.04-3.8,23.43-11.4,31.17-8.03,8.03-18.85,12.04-32.47,12.04s-24.51-4.16-32.25-12.47c-6.74-7.17-10.1-16.55-10.1-28.16v-11.18h20v7.53c0,18.49,7.67,27.74,23,27.74,8.46,0,14.76-3.15,18.92-9.46,3.15-4.87,4.73-12.97,4.73-24.29v-105.99Z"/>
    <path class="cls-1" d="M184.25,162.36c23.79,0,42.57,8.24,56.33,24.73,11.9,14.33,17.85,32.54,17.85,54.61,0,25.37-7.67,45.44-23,60.2-13.47,12.76-30.53,19.13-51.17,19.13-23.94,0-42.79-8.24-56.55-24.72-11.9-14.33-17.84-32.54-17.84-54.61,0-25.37,7.74-45.44,23.22-60.2,13.33-12.76,30.39-19.14,51.17-19.14ZM184.04,179.77c-17.49,0-31.32,6.38-41.5,19.14-8.74,11.18-13.11,25.44-13.11,42.78,0,19.93,5.66,35.62,16.98,47.09,9.89,9.89,22.43,14.83,37.62,14.83,17.63,0,31.53-6.38,41.71-19.14,8.74-11.18,13.12-25.44,13.12-42.79,0-19.92-5.66-35.62-16.98-47.08-9.89-9.89-22.5-14.84-37.84-14.84Z"/>
    <path class="cls-1" d="M382.7,164.72h19.57v105.56c0,16.63-6.09,29.53-18.28,38.7-10.46,8.03-24.15,12.04-41.06,12.04-19.49,0-34.54-5.09-45.15-15.27-9.17-9.03-13.76-20.85-13.76-35.47v-105.56h19.56v105.56c0,10.61,3.44,18.81,10.32,24.62s16.56,8.71,29.02,8.71c13.19,0,23.36-3.3,30.53-9.89,6.16-5.88,9.24-13.69,9.24-23.44v-105.56Z"/>
    <path class="cls-1" d="M457.73,252.44v66.22h-19.56v-153.94h70.73c16.34,0,28.52,4.01,36.55,12.04,7.02,7.03,10.54,16.77,10.54,29.24,0,8.74-1.9,15.98-5.7,21.71-3.8,5.73-10.07,10.75-18.81,15.05,7.02,2.72,12.18,6.38,15.48,10.96,3.29,4.73,5.16,14.4,5.59,29.03.29,10.75.97,17.95,2.04,21.61,1.08,3.65,3.47,6.77,7.2,9.35v4.95h-23.65c-3.15-6.59-4.73-13.54-4.73-20.86l.21-24.08c0-1.58-.65-4.01-1.94-7.31-1.29-3.3-2.51-5.66-3.65-7.09-3.87-4.59-10.46-6.88-19.78-6.88h-50.52ZM457.73,235.03h47.52c20.21,0,30.31-8.82,30.31-26.45s-10.1-26.45-30.31-26.45h-47.52v52.89Z"/>
    <path class="cls-1" d="M707.35,164.72v153.94h-21.93l-79.76-124.92v124.92h-18.49v-153.94h21.29l80.41,125.77v-125.77h18.49Z"/>
    <path class="cls-1" d="M823.66,272.44h-59.34l-16.34,46.22h-20.85l54.83-153.94h25.37l53.97,153.94h-21.72l-15.91-46.22ZM818.07,255.88l-23.65-69.88-25.16,69.88h48.8Z"/>
    <path class="cls-1" d="M900.85,164.72v136.52h75.9v17.42h-95.46v-153.94h19.56Z"/>
  </g>
  <g>
    <path class="cls-1" d="M311.11,19.78v136.52h-19.56V19.78h-50.74V2.37h120.61v17.42h-50.31Z"/>
    <path class="cls-1" d="M481.61,86.22h-79.33v70.09h-19.56V2.37h19.56v66.44h79.33V2.37h19.56v153.94h-19.56v-70.09Z"/>
    <path class="cls-1" d="M558.79,2.37v153.94h-20V2.37h20Z"/>
    <path class="cls-1" d="M702.2,46.66h-18.49c-.43-20.07-13.26-30.1-38.49-30.1-10.32,0-18.63,2.33-24.94,6.99-6.31,4.66-9.46,10.79-9.46,18.38,0,5.73,1.9,10.29,5.7,13.65,3.8,3.37,10.35,6.27,19.67,8.71l36.55,9.46c23.22,6.16,34.83,19.06,34.83,38.7,0,14.19-5.66,25.73-16.98,34.61-10.04,7.74-24.44,11.61-43.21,11.61-23.79,0-41.07-7.17-51.82-21.5-5.73-7.74-8.74-18.13-9.03-31.18h18.49v.43c0,11.18,3.83,19.82,11.5,25.91,7.67,6.09,18.38,9.14,32.14,9.14,12.61,0,22-2.08,28.16-6.23,7.31-5.02,10.97-12.04,10.97-21.07,0-11.47-9.39-19.56-28.17-24.29l-38.27-9.89c-20.07-5.16-30.1-16.98-30.1-35.47,0-14.62,5.52-25.94,16.55-33.97,9.6-7.02,22.29-10.54,38.05-10.54,22.36,0,38.34,6.52,47.95,19.56,5.59,7.6,8.38,15.84,8.38,24.73v2.37Z"/>
    <path class="cls-1" d="M797.87,2.37v153.94h-20V2.37h20Z"/>
    <path class="cls-1" d="M941.27,46.66h-18.49c-.43-20.07-13.26-30.1-38.49-30.1-10.32,0-18.63,2.33-24.94,6.99-6.31,4.66-9.46,10.79-9.46,18.38,0,5.73,1.9,10.29,5.7,13.65,3.8,3.37,10.35,6.27,19.67,8.71l36.55,9.46c23.22,6.16,34.83,19.06,34.83,38.7,0,14.19-5.66,25.73-16.99,34.61-10.03,7.74-24.44,11.61-43.21,11.61-23.79,0-41.07-7.17-51.82-21.5-5.73-7.74-8.74-18.13-9.03-31.18h18.49v.43c0,11.18,3.83,19.82,11.5,25.91,7.67,6.09,18.38,9.14,32.14,9.14,12.61,0,22-2.08,28.17-6.23,7.31-5.02,10.96-12.04,10.96-21.07,0-11.47-9.39-19.56-28.17-24.29l-38.27-9.89c-20.07-5.16-30.1-16.98-30.1-35.47,0-14.62,5.52-25.94,16.55-33.97,9.6-7.02,22.29-10.54,38.06-10.54,22.36,0,38.34,6.52,47.94,19.56,5.59,7.6,8.39,15.84,8.39,24.73v2.37Z"/>
  </g>
</svg>