<?xml version="1.0" encoding="UTF-8"?>
<svg id="Layer_1" data-name="Layer 1" xmlns="http://www.w3.org/2000/svg" viewBox="0 0 924.95 150.62">
  <defs>
    <style>
      .cls-1 {
        fill: #677282;
      }

      .cls-1, .cls-2 {
        stroke-width: 0px;
      }

      .cls-2 {
        fill: #30353d;
      }
    </style>
  </defs>
  <path class="cls-1" d="M69.19,27.98h-12.86l-2.3,6.91h-7.2L59.02.53h7.82l11.9,34.37h-7.3l-2.26-6.91ZM67.27,22.08l-4.46-13.44-4.51,13.44h8.98Z"/>
  <path class="cls-1" d="M104.09,34.9l-13.82-23.76v23.76h-7.06V.53h7.25l13.63,23.38V.53h7.06v34.37h-7.06Z"/>
  <path class="cls-1" d="M134.09,20.11v8.88h18.62v5.9h-25.68V.53h24.82v5.9h-17.76v7.78h16.46v5.9h-16.46Z"/>
  <path class="cls-1" d="M179.21,34.9l-13.82-23.76v23.76h-7.06V.53h7.25l13.63,23.38V.53h7.06v34.37h-7.06Z"/>
  <path class="cls-1" d="M223.22,16.18v18.72h-4.22l-.86-4.9c-2.53,3.62-5.97,5.42-10.32,5.42-5.06,0-9.1-1.86-12.14-5.57-2.66-3.26-3.98-7.3-3.98-12.1,0-5.66,1.73-10.14,5.18-13.44,3.01-2.88,6.83-4.32,11.47-4.32s8,1.17,10.75,3.5c2.37,1.98,3.74,4.61,4.13,7.87h-6.62c-1.31-3.55-4.06-5.33-8.26-5.33-3.2,0-5.65,1.15-7.34,3.46-1.5,2.05-2.26,4.75-2.26,8.11,0,3.71,1.04,6.67,3.12,8.88,1.79,1.92,4.03,2.88,6.72,2.88,2.85,0,5.18-1.04,7.01-3.12.93-1.09,1.49-2.48,1.68-4.18h-7.82v-5.9h13.78Z"/>
  <path class="cls-1" d="M237.04.53v34.37h-7.06V.53h7.06Z"/>
  <path class="cls-1" d="M264.98,34.9l-13.82-23.76v23.76h-7.06V.53h7.25l13.63,23.38V.53h7.06v34.37h-7.06Z"/>
  <path class="cls-1" d="M286.15,20.11v8.88h18.62v5.9h-25.68V.53h24.82v5.9h-17.76v7.78h16.46v5.9h-16.46Z"/>
  <path class="cls-1" d="M317.44,20.11v8.88h18.62v5.9h-25.68V.53h24.82v5.9h-17.76v7.78h16.46v5.9h-16.46Z"/>
  <path class="cls-1" d="M348.74,21.26v13.63h-7.06V.53h18.43c2.91,0,5.14.78,6.67,2.35,1.73,1.76,2.59,4.08,2.59,6.96,0,4.16-1.95,6.99-5.86,8.5,2.21.86,3.55,1.94,4.03,3.22.35.93.61,4.02.77,9.26.03,1.31.53,2.24,1.49,2.78v1.3h-7.58c-.7-1.31-1.06-3.25-1.06-5.81,0-.64.02-1.42.05-2.35v-1.39c0-2.72-1.46-4.08-4.37-4.08h-8.11ZM348.74,15.36h8.54c1.79,0,3.04-.29,3.74-.86.86-.74,1.3-1.95,1.3-3.65s-.43-2.8-1.3-3.5c-.74-.61-1.98-.91-3.74-.91h-8.54v8.93Z"/>
  <path class="cls-1" d="M391.46,23.42v11.47h-7.06V.53h7.06v15.12l13.44-15.12h8.35l-13.73,14.78,15.17,19.58h-8.45l-11.23-15.17-3.55,3.7Z"/>
  <path class="cls-1" d="M439.41,34.9l-13.82-23.76v23.76h-7.06V.53h7.25l13.63,23.38V.53h7.06v34.37h-7.06Z"/>
  <path class="cls-1" d="M468.45,0c4.86,0,8.77,1.55,11.71,4.66,3.2,3.36,4.8,7.71,4.8,13.06s-1.6,9.63-4.8,13.06c-2.91,3.1-6.82,4.66-11.71,4.66s-8.85-1.55-11.76-4.66c-3.2-3.42-4.8-7.78-4.8-13.06s1.6-9.63,4.8-13.06c2.94-3.1,6.86-4.66,11.76-4.66ZM468.45,6.05c-3.07,0-5.49,1.2-7.25,3.6-1.5,2.08-2.26,4.77-2.26,8.06,0,3.78.98,6.74,2.93,8.88,1.7,1.86,3.89,2.78,6.58,2.78,3.07,0,5.47-1.2,7.2-3.6,1.5-2.08,2.26-4.77,2.26-8.06,0-3.78-.98-6.74-2.93-8.88-1.7-1.86-3.87-2.78-6.53-2.78Z"/>
  <path class="cls-1" d="M521.2,34.9h-6.34l-5.81-26.78-5.57,26.78h-6.38L487.41.53h7.49l5.33,25.78,5.33-25.78h6.96l5.57,25.82,5.14-25.82h7.49l-9.5,34.37Z"/>
  <path class="cls-1" d="M559.89,10.9h-6.62c-.22-3.49-2.62-5.23-7.2-5.23-1.82,0-3.27.37-4.34,1.1-1.07.74-1.61,1.73-1.61,2.98s.45,2.13,1.34,2.74c.9.61,2.62,1.15,5.18,1.63l5.38,1.01c3.17.61,5.47,1.65,6.91,3.12,1.44,1.47,2.16,3.55,2.16,6.24,0,3.68-1.41,6.48-4.22,8.4-2.43,1.7-5.71,2.54-9.84,2.54-4.7,0-8.29-1.09-10.75-3.26-2.14-1.89-3.31-4.51-3.5-7.87h6.86c.26,3.65,2.83,5.47,7.73,5.47,2.18,0,3.88-.39,5.11-1.18,1.23-.78,1.85-1.86,1.85-3.24s-.49-2.38-1.46-3.12c-.98-.74-2.65-1.33-5.02-1.78l-4.8-.91c-3.49-.64-5.98-1.66-7.46-3.05-1.49-1.39-2.23-3.4-2.23-6.02,0-3.55,1.3-6.24,3.89-8.06,2.24-1.6,5.28-2.4,9.12-2.4,4.64,0,8.13,1.06,10.46,3.17,2.02,1.86,3.04,4.43,3.07,7.73Z"/>
  <path class="cls-1" d="M582.21,20.11v8.88h18.62v5.9h-25.68V.53h24.82v5.9h-17.76v7.78h16.46v5.9h-16.46Z"/>
  <path class="cls-1" d="M621.47,34.9h-5.95l-11.62-34.37h7.1l7.63,25.92,7.49-25.92h7.15l-11.81,34.37Z"/>
  <path class="cls-1" d="M644.8,20.11v8.88h18.62v5.9h-25.68V.53h24.82v5.9h-17.76v7.78h16.46v5.9h-16.46Z"/>
  <path class="cls-1" d="M676.1,21.26v13.63h-7.06V.53h18.43c2.91,0,5.14.78,6.67,2.35,1.73,1.76,2.59,4.08,2.59,6.96,0,4.16-1.95,6.99-5.86,8.5,2.21.86,3.55,1.94,4.03,3.22.35.93.61,4.02.77,9.26.03,1.31.53,2.24,1.49,2.78v1.3h-7.58c-.7-1.31-1.06-3.25-1.06-5.81,0-.64.02-1.42.05-2.35v-1.39c0-2.72-1.46-4.08-4.37-4.08h-8.11ZM676.1,15.36h8.54c1.79,0,3.04-.29,3.74-.86.86-.74,1.3-1.95,1.3-3.65s-.43-2.8-1.3-3.5c-.74-.61-1.98-.91-3.74-.91h-8.54v8.93Z"/>
  <path class="cls-1" d="M718.67,22.18v12.72h-7.06v-12.72l-11.42-21.65h7.87l7.01,15.17,6.58-15.17h7.87l-10.85,21.65Z"/>
  <path class="cls-1" d="M748.53,6.43v28.46h-7.06V6.43h-10.46V.53h27.5v5.9h-9.98Z"/>
  <path class="cls-1" d="M783.47,19.3h-13.63v15.6h-7.06V.53h7.06v12.86h13.58V.53h7.1v34.37h-7.06v-15.6Z"/>
  <path class="cls-1" d="M804.64.53v34.37h-7.06V.53h7.06Z"/>
  <path class="cls-1" d="M832.57,34.9l-13.82-23.76v23.76h-7.06V.53h7.25l13.63,23.38V.53h7.06v34.37h-7.06Z"/>
  <path class="cls-1" d="M876.59,16.18v18.72h-4.22l-.86-4.9c-2.53,3.62-5.97,5.42-10.32,5.42-5.06,0-9.1-1.86-12.14-5.57-2.66-3.26-3.98-7.3-3.98-12.1,0-5.66,1.73-10.14,5.18-13.44,3.01-2.88,6.83-4.32,11.47-4.32s8,1.17,10.75,3.5c2.37,1.98,3.74,4.61,4.13,7.87h-6.62c-1.31-3.55-4.06-5.33-8.26-5.33-3.2,0-5.65,1.15-7.34,3.46-1.5,2.05-2.26,4.75-2.26,8.11,0,3.71,1.04,6.67,3.12,8.88,1.79,1.92,4.03,2.88,6.72,2.88,2.85,0,5.18-1.04,7.01-3.12.93-1.09,1.49-2.48,1.68-4.18h-7.82v-5.9h13.78Z"/>
  <path class="cls-1" d="M22.37,85.58h-12.86l-2.3,6.91H0l12.19-34.37h7.82l11.9,34.37h-7.3l-2.26-6.91ZM20.45,79.68l-4.46-13.44-4.51,13.44h8.98Z"/>
  <path class="cls-1" d="M36.38,92.5v-34.37h15.31c3.49,0,6.19.85,8.11,2.54,2.08,1.79,3.12,3.97,3.12,6.53,0,1.47-.36,2.74-1.08,3.82-.72,1.07-1.93,2.15-3.62,3.24,3.78,2.24,5.66,5.02,5.66,8.35,0,3.01-1.14,5.47-3.41,7.39-1.98,1.66-4.86,2.5-8.64,2.5h-15.46ZM43.44,64.03v7.78h7.73c3.3,0,4.94-1.3,4.94-3.89s-1.65-3.89-4.94-3.89h-7.73ZM43.44,77.71v8.88h8.45c3.49,0,5.23-1.47,5.23-4.42s-1.74-4.46-5.23-4.46h-8.45Z"/>
  <path class="cls-1" d="M84.77,57.6c4.86,0,8.77,1.55,11.71,4.66,3.2,3.36,4.8,7.71,4.8,13.06s-1.6,9.63-4.8,13.06c-2.91,3.1-6.82,4.66-11.71,4.66s-8.85-1.55-11.76-4.66c-3.2-3.42-4.8-7.78-4.8-13.06s1.6-9.63,4.8-13.06c2.94-3.1,6.86-4.66,11.76-4.66ZM84.77,63.65c-3.07,0-5.49,1.2-7.25,3.6-1.5,2.08-2.26,4.77-2.26,8.06,0,3.78.98,6.74,2.93,8.88,1.7,1.86,3.89,2.78,6.58,2.78,3.07,0,5.47-1.2,7.2-3.6,1.5-2.08,2.26-4.77,2.26-8.06,0-3.78-.98-6.74-2.93-8.88-1.7-1.86-3.87-2.78-6.53-2.78Z"/>
  <path class="cls-1" d="M126.86,58.13h7.1v22.75c0,3.74-1.12,6.62-3.36,8.64-2.56,2.34-5.98,3.5-10.27,3.5s-7.71-1.17-10.27-3.5c-2.24-2.02-3.36-4.9-3.36-8.64v-22.75h7.06v22.75c0,4.06,2.19,6.1,6.58,6.1s6.53-2.03,6.53-6.1v-22.75Z"/>
  <path class="cls-1" d="M155.71,64.03v28.46h-7.06v-28.46h-10.46v-5.9h27.5v5.9h-9.98Z"/>
  <path class="cls-1" d="M203.81,68.5h-6.62c-.22-3.49-2.62-5.23-7.2-5.23-1.82,0-3.27.37-4.34,1.1-1.07.74-1.61,1.73-1.61,2.98s.45,2.13,1.34,2.74c.9.61,2.62,1.15,5.18,1.63l5.38,1.01c3.17.61,5.47,1.65,6.91,3.12,1.44,1.47,2.16,3.55,2.16,6.24,0,3.68-1.41,6.48-4.22,8.4-2.43,1.7-5.71,2.54-9.84,2.54-4.7,0-8.29-1.09-10.75-3.26-2.14-1.89-3.31-4.51-3.5-7.87h6.86c.26,3.65,2.83,5.47,7.73,5.47,2.18,0,3.88-.39,5.11-1.18,1.23-.78,1.85-1.86,1.85-3.24s-.49-2.38-1.46-3.12c-.98-.74-2.65-1.33-5.02-1.78l-4.8-.91c-3.49-.64-5.98-1.66-7.46-3.05-1.49-1.39-2.23-3.4-2.23-6.02,0-3.55,1.3-6.24,3.89-8.06,2.24-1.6,5.28-2.4,9.12-2.4,4.64,0,8.13,1.06,10.46,3.17,2.02,1.86,3.04,4.43,3.07,7.73Z"/>
  <path class="cls-1" d="M225.17,57.6c4.86,0,8.77,1.55,11.71,4.66,3.2,3.36,4.8,7.71,4.8,13.06s-1.6,9.63-4.8,13.06c-2.91,3.1-6.82,4.66-11.71,4.66s-8.85-1.55-11.76-4.66c-3.2-3.42-4.8-7.78-4.8-13.06s1.6-9.63,4.8-13.06c2.94-3.1,6.86-4.66,11.76-4.66ZM225.17,63.65c-3.07,0-5.49,1.2-7.25,3.6-1.5,2.08-2.26,4.77-2.26,8.06,0,3.78.98,6.74,2.93,8.88,1.7,1.86,3.89,2.78,6.58,2.78,3.07,0,5.47-1.2,7.2-3.6,1.5-2.08,2.26-4.77,2.26-8.06,0-3.78-.98-6.74-2.93-8.88-1.7-1.86-3.87-2.78-6.53-2.78Z"/>
  <path class="cls-1" d="M254.16,65.76v26.74h-7.06v-34.37h10.56l6.24,27.36,6-27.36h10.66v34.37h-7.06v-26.74l-6.1,26.74h-7.06l-6.19-26.74Z"/>
  <path class="cls-1" d="M294.67,77.71v8.88h18.62v5.9h-25.68v-34.37h24.82v5.9h-17.76v7.78h16.46v5.9h-16.46Z"/>
  <path class="cls-1" d="M333.64,64.03v28.46h-7.06v-28.46h-10.46v-5.9h27.5v5.9h-9.98Z"/>
  <path class="cls-1" d="M368.59,76.9h-13.63v15.6h-7.06v-34.37h7.06v12.86h13.58v-12.86h7.1v34.37h-7.06v-15.6Z"/>
  <path class="cls-1" d="M389.75,58.13v34.37h-7.06v-34.37h7.06Z"/>
  <path class="cls-1" d="M417.69,92.5l-13.82-23.76v23.76h-7.06v-34.37h7.25l13.63,23.38v-23.38h7.06v34.37h-7.06Z"/>
  <path class="cls-1" d="M461.71,73.78v18.72h-4.22l-.86-4.9c-2.53,3.62-5.97,5.42-10.32,5.42-5.06,0-9.1-1.86-12.14-5.57-2.66-3.26-3.98-7.3-3.98-12.1,0-5.66,1.73-10.14,5.18-13.44,3.01-2.88,6.83-4.32,11.47-4.32s8,1.17,10.75,3.5c2.37,1.98,3.74,4.61,4.13,7.87h-6.62c-1.31-3.55-4.06-5.33-8.26-5.33-3.2,0-5.65,1.15-7.34,3.46-1.5,2.05-2.26,4.75-2.26,8.11,0,3.71,1.04,6.67,3.12,8.88,1.79,1.92,4.03,2.88,6.72,2.88,2.85,0,5.18-1.04,7.01-3.12.93-1.09,1.49-2.48,1.68-4.18h-7.82v-5.9h13.78Z"/>
  <path class="cls-1" d="M471.26,86.54c.86,0,1.6.3,2.21.89.61.59.91,1.32.91,2.18s-.3,1.6-.91,2.21c-.61.61-1.34.91-2.21.91s-1.55-.3-2.16-.91c-.61-.61-.91-1.34-.91-2.21s.3-1.59.89-2.18c.59-.59,1.32-.89,2.18-.89Z"/>
  <path class="cls-2" d="M510.14,85.58h-12.86l-2.3,6.91h-7.2l12.19-34.37h7.82l11.9,34.37h-7.3l-2.26-6.91ZM508.22,79.68l-4.46-13.44-4.51,13.44h8.98Z"/>
  <path class="cls-2" d="M545.03,92.5l-13.82-23.76v23.76h-7.06v-34.37h7.25l13.63,23.38v-23.38h7.06v34.37h-7.06Z"/>
  <path class="cls-2" d="M587.99,85.58h-12.86l-2.3,6.91h-7.2l12.19-34.37h7.82l11.9,34.37h-7.3l-2.26-6.91ZM586.07,79.68l-4.46-13.44-4.51,13.44h8.98Z"/>
  <path class="cls-2" d="M609.07,78.86v13.63h-7.06v-34.37h18.43c2.91,0,5.14.78,6.67,2.35,1.73,1.76,2.59,4.08,2.59,6.96,0,4.16-1.95,6.99-5.86,8.5,2.21.86,3.55,1.94,4.03,3.22.35.93.61,4.02.77,9.26.03,1.31.53,2.24,1.49,2.78v1.3h-7.58c-.7-1.31-1.06-3.25-1.06-5.81,0-.64.02-1.42.05-2.35v-1.39c0-2.72-1.46-4.08-4.37-4.08h-8.11ZM609.07,72.96h8.54c1.79,0,3.04-.29,3.74-.86.86-.74,1.3-1.95,1.3-3.65s-.43-2.8-1.3-3.5c-.74-.61-1.98-.91-3.74-.91h-8.54v8.93Z"/>
  <path class="cls-2" d="M650.63,64.03v28.46h-7.06v-28.46h-10.46v-5.9h27.5v5.9h-9.98Z"/>
  <path class="cls-2" d="M671.94,58.13v34.37h-7.06v-34.37h7.06Z"/>
  <path class="cls-2" d="M704.01,68.5h-6.62c-.22-3.49-2.62-5.23-7.2-5.23-1.82,0-3.27.37-4.34,1.1-1.07.74-1.61,1.73-1.61,2.98s.45,2.13,1.34,2.74c.9.61,2.62,1.15,5.18,1.63l5.38,1.01c3.17.61,5.47,1.65,6.91,3.12,1.44,1.47,2.16,3.55,2.16,6.24,0,3.68-1.41,6.48-4.22,8.4-2.43,1.7-5.71,2.54-9.84,2.54-4.7,0-8.29-1.09-10.75-3.26-2.14-1.89-3.31-4.51-3.5-7.87h6.86c.26,3.65,2.83,5.47,7.73,5.47,2.18,0,3.88-.39,5.11-1.18,1.23-.78,1.85-1.86,1.85-3.24s-.49-2.38-1.46-3.12c-.98-.74-2.65-1.33-5.02-1.78l-4.8-.91c-3.49-.64-5.98-1.66-7.46-3.05-1.49-1.39-2.23-3.4-2.23-6.02,0-3.55,1.3-6.24,3.89-8.06,2.24-1.6,5.28-2.4,9.12-2.4,4.64,0,8.13,1.06,10.46,3.17,2.02,1.86,3.04,4.43,3.07,7.73Z"/>
  <path class="cls-2" d="M725.18,64.03v28.46h-7.06v-28.46h-10.46v-5.9h27.5v5.9h-9.98Z"/>
  <path class="cls-2" d="M755.32,81.02v11.47h-7.06v-34.37h7.06v15.12l13.44-15.12h8.35l-13.73,14.78,15.17,19.58h-8.45l-11.23-15.17-3.55,3.7Z"/>
  <path class="cls-2" d="M803.27,92.5l-13.82-23.76v23.76h-7.06v-34.37h7.25l13.63,23.38v-23.38h7.06v34.37h-7.06Z"/>
  <path class="cls-2" d="M832.31,57.6c4.86,0,8.77,1.55,11.71,4.66,3.2,3.36,4.8,7.71,4.8,13.06s-1.6,9.63-4.8,13.06c-2.91,3.1-6.82,4.66-11.71,4.66s-8.85-1.55-11.76-4.66c-3.2-3.42-4.8-7.78-4.8-13.06s1.6-9.63,4.8-13.06c2.94-3.1,6.86-4.66,11.76-4.66ZM832.31,63.65c-3.07,0-5.49,1.2-7.25,3.6-1.5,2.08-2.26,4.77-2.26,8.06,0,3.78.98,6.74,2.93,8.88,1.7,1.86,3.89,2.78,6.58,2.78,3.07,0,5.47-1.2,7.2-3.6,1.5-2.08,2.26-4.77,2.26-8.06,0-3.78-.98-6.74-2.93-8.88-1.7-1.86-3.87-2.78-6.53-2.78Z"/>
  <path class="cls-2" d="M885.06,92.5h-6.34l-5.81-26.78-5.57,26.78h-6.38l-9.7-34.37h7.49l5.33,25.78,5.33-25.78h6.96l5.57,25.82,5.14-25.82h7.49l-9.5,34.37Z"/>
  <path class="cls-2" d="M923.75,68.5h-6.62c-.22-3.49-2.62-5.23-7.2-5.23-1.82,0-3.27.37-4.34,1.1-1.07.74-1.61,1.73-1.61,2.98s.45,2.13,1.34,2.74c.9.61,2.62,1.15,5.18,1.63l5.38,1.01c3.17.61,5.47,1.65,6.91,3.12,1.44,1.47,2.16,3.55,2.16,6.24,0,3.68-1.41,6.48-4.22,8.4-2.43,1.7-5.71,2.54-9.84,2.54-4.7,0-8.29-1.09-10.75-3.26-2.14-1.89-3.31-4.51-3.5-7.87h6.86c.26,3.65,2.83,5.47,7.73,5.47,2.18,0,3.88-.39,5.11-1.18,1.23-.78,1.85-1.86,1.85-3.24s-.49-2.38-1.46-3.12c-.98-.74-2.65-1.33-5.02-1.78l-4.8-.91c-3.49-.64-5.98-1.66-7.46-3.05-1.49-1.39-2.23-3.4-2.23-6.02,0-3.55,1.3-6.24,3.89-8.06,2.24-1.6,5.28-2.4,9.12-2.4,4.64,0,8.13,1.06,10.46,3.17,2.02,1.86,3.04,4.43,3.07,7.73Z"/>
  <path class="cls-2" d="M93.29,126.1h-6.62c-.22-3.49-2.62-5.23-7.2-5.23-1.82,0-3.27.37-4.34,1.1-1.07.74-1.61,1.73-1.61,2.98s.45,2.13,1.34,2.74c.9.61,2.62,1.15,5.18,1.63l5.38,1.01c3.17.61,5.47,1.65,6.91,3.12,1.44,1.47,2.16,3.55,2.16,6.24,0,3.68-1.41,6.48-4.22,8.4-2.43,1.7-5.71,2.54-9.84,2.54-4.7,0-8.29-1.09-10.75-3.26-2.14-1.89-3.31-4.51-3.5-7.87h6.86c.26,3.65,2.83,5.47,7.73,5.47,2.18,0,3.88-.39,5.11-1.18,1.23-.78,1.85-1.86,1.85-3.24s-.49-2.38-1.46-3.12c-.98-.74-2.65-1.33-5.02-1.78l-4.8-.91c-3.49-.64-5.98-1.66-7.46-3.05-1.49-1.39-2.23-3.4-2.23-6.02,0-3.55,1.3-6.24,3.89-8.06,2.24-1.6,5.28-2.4,9.12-2.4,4.64,0,8.13,1.06,10.46,3.17,2.02,1.86,3.04,4.43,3.07,7.73Z"/>
  <path class="cls-2" d="M114.65,115.2c4.86,0,8.77,1.55,11.71,4.66,3.2,3.36,4.8,7.71,4.8,13.06s-1.6,9.63-4.8,13.06c-2.91,3.1-6.82,4.66-11.71,4.66s-8.85-1.55-11.76-4.66c-3.2-3.42-4.8-7.78-4.8-13.06s1.6-9.63,4.8-13.06c2.94-3.1,6.86-4.66,11.76-4.66ZM114.65,121.25c-3.07,0-5.49,1.2-7.25,3.6-1.5,2.08-2.26,4.77-2.26,8.06,0,3.78.98,6.74,2.93,8.88,1.7,1.86,3.89,2.78,6.58,2.78,3.07,0,5.47-1.2,7.2-3.6,1.5-2.08,2.26-4.77,2.26-8.06,0-3.78-.98-6.74-2.93-8.88-1.7-1.86-3.87-2.78-6.53-2.78Z"/>
  <path class="cls-2" d="M143.64,123.36v26.74h-7.06v-34.37h10.56l6.24,27.36,6-27.36h10.66v34.37h-7.06v-26.74l-6.1,26.74h-7.06l-6.19-26.74Z"/>
  <path class="cls-2" d="M184.15,135.31v8.88h18.62v5.9h-25.68v-34.37h24.82v5.9h-17.76v7.78h16.46v5.9h-16.46Z"/>
  <path class="cls-2" d="M223.13,121.63v28.46h-7.06v-28.46h-10.46v-5.9h27.5v5.9h-9.98Z"/>
  <path class="cls-2" d="M258.07,134.5h-13.63v15.6h-7.06v-34.37h7.06v12.86h13.58v-12.86h7.1v34.37h-7.06v-15.6Z"/>
  <path class="cls-2" d="M279.24,115.73v34.37h-7.06v-34.37h7.06Z"/>
  <path class="cls-2" d="M307.17,150.1l-13.82-23.76v23.76h-7.06v-34.37h7.25l13.63,23.38v-23.38h7.06v34.37h-7.06Z"/>
  <path class="cls-2" d="M351.19,131.38v18.72h-4.22l-.86-4.9c-2.53,3.62-5.97,5.42-10.32,5.42-5.06,0-9.1-1.86-12.14-5.57-2.66-3.26-3.98-7.3-3.98-12.1,0-5.66,1.73-10.14,5.18-13.44,3.01-2.88,6.83-4.32,11.47-4.32s8,1.17,10.75,3.5c2.37,1.98,3.74,4.61,4.13,7.87h-6.62c-1.31-3.55-4.06-5.33-8.26-5.33-3.2,0-5.65,1.15-7.34,3.46-1.5,2.05-2.26,4.75-2.26,8.11,0,3.71,1.04,6.67,3.12,8.88,1.79,1.92,4.03,2.88,6.72,2.88,2.85,0,5.18-1.04,7.01-3.12.93-1.09,1.49-2.48,1.68-4.18h-7.82v-5.9h13.78Z"/>
  <path class="cls-2" d="M386.8,143.18h-12.86l-2.3,6.91h-7.2l12.19-34.37h7.82l11.9,34.37h-7.3l-2.26-6.91ZM384.88,137.28l-4.46-13.44-4.51,13.44h8.98Z"/>
  <path class="cls-2" d="M400.82,150.1v-34.37h15.31c3.49,0,6.19.85,8.11,2.54,2.08,1.79,3.12,3.97,3.12,6.53,0,1.47-.36,2.74-1.08,3.82-.72,1.07-1.93,2.15-3.62,3.24,3.78,2.24,5.66,5.02,5.66,8.35,0,3.01-1.14,5.47-3.41,7.39-1.98,1.66-4.87,2.5-8.64,2.5h-15.46ZM407.88,121.63v7.78h7.73c3.3,0,4.94-1.3,4.94-3.89s-1.65-3.89-4.94-3.89h-7.73ZM407.88,135.31v8.88h8.45c3.49,0,5.23-1.47,5.23-4.42s-1.74-4.46-5.23-4.46h-8.45Z"/>
  <path class="cls-2" d="M449.2,115.2c4.86,0,8.77,1.55,11.71,4.66,3.2,3.36,4.8,7.71,4.8,13.06s-1.6,9.63-4.8,13.06c-2.91,3.1-6.82,4.66-11.71,4.66s-8.85-1.55-11.76-4.66c-3.2-3.42-4.8-7.78-4.8-13.06s1.6-9.63,4.8-13.06c2.94-3.1,6.86-4.66,11.76-4.66ZM449.2,121.25c-3.07,0-5.49,1.2-7.25,3.6-1.5,2.08-2.26,4.77-2.26,8.06,0,3.78.98,6.74,2.93,8.88,1.7,1.86,3.89,2.78,6.58,2.78,3.07,0,5.47-1.2,7.2-3.6,1.5-2.08,2.26-4.77,2.26-8.06,0-3.78-.98-6.74-2.93-8.88-1.7-1.86-3.87-2.78-6.53-2.78Z"/>
  <path class="cls-2" d="M491.3,115.73h7.1v22.75c0,3.74-1.12,6.62-3.36,8.64-2.56,2.34-5.98,3.5-10.27,3.5s-7.71-1.17-10.27-3.5c-2.24-2.02-3.36-4.9-3.36-8.64v-22.75h7.06v22.75c0,4.06,2.19,6.1,6.58,6.1s6.53-2.03,6.53-6.1v-22.75Z"/>
  <path class="cls-2" d="M520.15,121.63v28.46h-7.06v-28.46h-10.46v-5.9h27.5v5.9h-9.98Z"/>
  <path class="cls-2" d="M550.29,135.31v8.88h18.62v5.9h-25.68v-34.37h24.82v5.9h-17.76v7.78h16.46v5.9h-16.46Z"/>
  <path class="cls-2" d="M589.55,150.1h-5.95l-11.62-34.37h7.1l7.63,25.92,7.49-25.92h7.15l-11.81,34.37Z"/>
  <path class="cls-2" d="M612.88,135.31v8.88h18.62v5.9h-25.68v-34.37h24.82v5.9h-17.76v7.78h16.46v5.9h-16.46Z"/>
  <path class="cls-2" d="M644.18,136.46v13.63h-7.06v-34.37h18.43c2.91,0,5.14.78,6.67,2.35,1.73,1.76,2.59,4.08,2.59,6.96,0,4.16-1.95,6.99-5.86,8.5,2.21.86,3.55,1.94,4.03,3.22.35.93.61,4.02.77,9.26.03,1.31.53,2.24,1.49,2.78v1.3h-7.58c-.7-1.31-1.06-3.25-1.06-5.81,0-.64.02-1.42.05-2.35v-1.39c0-2.72-1.46-4.08-4.37-4.08h-8.11ZM644.18,130.56h8.54c1.79,0,3.04-.29,3.74-.86.86-.74,1.3-1.95,1.3-3.65s-.43-2.8-1.3-3.5c-.74-.61-1.98-.91-3.74-.91h-8.54v8.93Z"/>
  <path class="cls-2" d="M686.75,137.38v12.72h-7.06v-12.72l-11.42-21.65h7.87l7.01,15.17,6.58-15.17h7.87l-10.85,21.65Z"/>
  <path class="cls-2" d="M716.61,121.63v28.46h-7.06v-28.46h-10.46v-5.9h27.5v5.9h-9.98Z"/>
  <path class="cls-2" d="M751.55,134.5h-13.63v15.6h-7.06v-34.37h7.06v12.86h13.58v-12.86h7.1v34.37h-7.06v-15.6Z"/>
  <path class="cls-2" d="M772.72,115.73v34.37h-7.06v-34.37h7.06Z"/>
  <path class="cls-2" d="M800.65,150.1l-13.82-23.76v23.76h-7.06v-34.37h7.25l13.63,23.38v-23.38h7.06v34.37h-7.06Z"/>
  <path class="cls-2" d="M844.67,131.38v18.72h-4.22l-.86-4.9c-2.53,3.62-5.97,5.42-10.32,5.42-5.06,0-9.1-1.86-12.14-5.57-2.66-3.26-3.98-7.3-3.98-12.1,0-5.66,1.73-10.14,5.18-13.44,3.01-2.88,6.83-4.32,11.47-4.32s8,1.17,10.75,3.5c2.37,1.98,3.74,4.61,4.13,7.87h-6.62c-1.31-3.55-4.06-5.33-8.26-5.33-3.2,0-5.65,1.15-7.34,3.46-1.5,2.05-2.26,4.75-2.26,8.11,0,3.71,1.04,6.67,3.12,8.88,1.79,1.92,4.03,2.88,6.72,2.88,2.85,0,5.18-1.04,7.01-3.12.93-1.09,1.49-2.48,1.68-4.18h-7.82v-5.9h13.78Z"/>
  <path class="cls-2" d="M854.22,144.14c.86,0,1.6.3,2.21.89.61.59.91,1.32.91,2.18s-.3,1.6-.91,2.21c-.61.61-1.34.91-2.21.91s-1.55-.3-2.16-.91c-.61-.61-.91-1.34-.91-2.21s.3-1.59.89-2.18c.59-.59,1.32-.89,2.18-.89Z"/>
</svg>