<?xml version="1.0" encoding="UTF-8"?>
<svg id="Layer_1" data-name="Layer 1" xmlns="http://www.w3.org/2000/svg" version="1.1" viewBox="0 0 131 131">
  <defs>
    <style>
      .cls-1, .cls-2, .cls-3, .cls-4, .cls-5 {
        fill: #fff;
        stroke: #fff; /* Make stroke white */
      }

      .cls-1 {
        stroke-width: 0px;
      }

      .cls-3 {
        stroke-width: 2px; /* Keep stroke width if necessary */
      }

      .cls-4, .cls-5 {
        stroke-miterlimit: 10;
      }
    </style>
  </defs>
  <g id="Circles">
    <path id="sun" class="cls-4" d="M49.9,30.4c2.5.5,4.9,1.3,7.3,2.4,19.5,8.5,28.4,31.2,19.8,50.7-3.9,9-10.9,15.8-19.2,19.5-17.6-3.6-30.8-19.1-30.8-37.7s17.2-38.5,38.5-38.5,14.7,2.2,20.6,6c-1.6-1-3.2-1.9-5-2.6-10.4-4.6-21.7-4.1-31.3.2Z"/>
    <path id="sun" class="cls-2" d="M104,65.3c0,21.3-17.2,38.5-38.5,38.5s-5.2-.3-7.7-.8c8.3-3.8,15.3-10.5,19.2-19.5,8.5-19.5-.4-42.2-19.8-50.7-2.4-1-4.8-1.8-7.3-2.4,9.6-4.3,20.9-4.8,31.3-.2,1.7.8,3.4,1.6,5,2.6,0,0,.1,0,.2.1,10.6,6.9,17.7,18.8,17.7,32.4Z"/>
    <path id="moon" class="cls-5" d="M101,80.9c-7.5,17.1-25.9,26-43.4,22.2,0,0,.1,0,.2,0,8.3-3.8,15.3-10.5,19.2-19.5,8.5-19.5-.4-42.2-19.8-50.7-2.4-1-4.8-1.8-7.3-2.4,9.6-4.3,20.9-4.8,31.3-.2,1.7.8,3.4,1.6,5,2.6,0,0,.1,0,.2.1,15.8,10,22.4,30.3,14.7,48Z"/>
  </g>
  <g id="Rays">
    <line id="ray1" class="cls-3" x1="65" y1="20" x2="65"/>
    <line id="ray2" class="cls-3" x1="42.3" y1="26.4" x2="32.3" y2="9"/>
    <line id="ray3" class="cls-3" x1="25.9" y1="43.2" x2="8.5" y2="33.2"/>
    <line id="ray4" class="cls-3" x1="20" y1="66" y2="66"/>
    <line id="ray5" class="cls-3" x1="26.4" y1="88.7" x2="9" y2="98.7"/>
    <line id="ray6" class="cls-3" x1="43.2" y1="105.2" x2="33.2" y2="122.5"/>
    <line id="ray7" class="cls-3" x1="66" y1="111" x2="66" y2="131"/>
    <line id="ray8" class="cls-3" x1="88.7" y1="104.7" x2="98.7" y2="122"/>
    <line id="ray9" class="cls-3" x1="105.2" y1="87.8" x2="122.5" y2="97.8"/>
    <line id="ray10" class="cls-3" x1="111" y1="65" x2="131" y2="65"/>
    <line id="ray11" class="cls-3" x1="104.7" y1="42.3" x2="122" y2="32.3"/>
    <line id="ray12" class="cls-3" x1="87.8" y1="25.9" x2="97.8" y2="8.5"/>
  </g>
  <g id="Stars">
    <polygon id="Star3" class="cls-1 stars" points="47.4 50.2 43 46.9 38.5 50.1 40.2 44.9 35.8 41.6 41.3 41.6 43.1 36.4 44.7 41.7 50.3 41.7 45.8 44.9 47.4 50.2"/>
    <polygon id="Star2" class="cls-1 stars" points="59.2 66.8 55.7 66.4 54.3 69.6 53.6 66.2 50.1 65.8 53.1 64.1 52.4 60.6 55 63 58 61.2 56.6 64.4 59.2 66.8"/>
    <polygon id="Star1" class="cls-1 stars" points="34.8 80.6 37.8 80.3 38.5 77.3 39.7 80.1 42.8 79.8 40.5 81.8 41.7 84.6 39.1 83.1 36.8 85.1 37.4 82.1 34.8 80.6"/>
  </g>
</svg>