<?xml version="1.0" encoding="UTF-8"?>
<svg id="Layer_1" data-name="Layer 1" xmlns="http://www.w3.org/2000/svg" viewBox="0 0 87.25 97">
  <defs>
    <style>
      .cls-1a {
        fill: #000;
        stroke-width: 0px;
      }
    </style>
  </defs>
  <path class="cls-1a" d="M33.99,25.23c-4.77,5.67-9.75,10.75-15.42,15.59-.09.08-.13.17-.16.26,0,0,0,0,0,0-.02.06-.02.12,0,.18,0,.02.02.04.03.07.02.05.04.08.08.12.02.01.03.03.05.04.06.04.14.07.24.07,2.75,0,5.12-1.07,7.59-2.15-.17.08.23-.1.75-.32.48-.2,1.06-.43,1.4-.53,0,0,0,0,0,0,.19-.06.31-.08.26-.01-1.32,1.82-2.68,3.6-4.04,5.39-2.85,3.75-6.4,7-9.91,10.18-2.08,1.88-5.51,3.49-7.04,5.88-.12.18-.15.38-.09.54h0s.01.01.01.02c.02.05.05.1.1.14.05.05.12.09.22.11,2.65.65,4.95.22,7.54-.52.88-.25,2.03-.65,2.85-1.04,1.1-.39,2.07-1,2.87-1.82-.68.7-1.39,1.37-2.12,2.02-3.24,3.02-6.68,5.8-10.31,8.37-2.45,1.74-5.29,2.88-7.76,4.54,0,0,0,0,0,0-.21.15-.42.28-.64.44-.33.24-.85,1.26-.02,1.28,4.65.14,9.82-.96,14.58-2.8-.73.66-1.46,1.31-2.22,1.94-2.85,2.4-5.96,4.4-9.07,6.47-1.29.86-1.74.67-2.61,1.74-.28.33-.22.99.32,1.04,6.65.66,13.33-.02,19.65-1.97,0,0-.02.01-.03.02-1.52,1.09-3.45,1.49-4.75,2.84-.37.38-.58,1.23.19,1.34,4.3.63,9.03-1.15,13.02-2.47.77-.25,1.51-.54,2.27-.83-.91.88-1.83,1.74-2.8,2.54-.4.34-.39.93.15,1.1,3.09.91,7.07-.4,10.12-1.23,1.93-.53,3.8-1.43,5.53-2.53-.09,1.17-.16,2.34-.25,3.51-.19,2.33-.56,4.87-.4,7.29-.42,0-.86-.11-1.27.02.48.08.96.31,1.33.64.02.2.05.39.08.58-.22-.14-.48-.25-.81-.31-.77-.15-1.6.08-2.25.46.78-.25,1.68-.05,2.33.44.04.02.07.03.11.05.27.13.62.36.91.64.01.05.03.09.05.14-.45-.14-.98-.15-1.38-.07-.02,0-.05.02-.07.04.86.21,1.69.56,1.47,1.66-.03.14,0,.29-.02.42.24-.13.53-.31.79-.52.04.03.08.06.12.08-.08.11-.17.21-.26.29,0,0,.14-.1.34-.25.16.07.33.12.51.13-.06.18-.16.36-.32.49,0,0,.5-.24,1.02-.57.33-.09.67-.24.97-.43.06.21.09.52-.11.83,0,0,.73-.65.95-1.29,0,0,.86.85,2.06.91h0c-.8-.57-1.26-1.51-.57-2.39.39-.5.85-.88,1.35-1.19-.38-.05-.78-.08-1.12.04-.04.01-.09.03-.13.05-.07.03-.14.08-.2.13-.06.06-.12.08-.17.07-.24.15-.45.33-.62.53.08-.27.14-.55.2-.83,0-.02.01-.05.02-.07.21-.48.66-.87,1.11-1.18.09-.12.18-.24.3-.36-.02,0-.03-.03-.06-.03-.35-.02-.74.1-1.12.27.44-3,.27-6.26-.08-9.5.22-.21.44-.43.64-.63,1.13-1.13,2.17-2.34,3.07-3.65,2.61,4.02,7.33,6.31,12.25,6.75,1.75.33,3.51.47,5.2.22.77-.11.55-.96.19-1.34-1.29-1.35-3.23-1.75-4.75-2.84,0,0-.02-.01-.02-.02,6.31,1.95,12.99,2.63,19.64,1.97.54-.05.59-.71.32-1.04-.88-1.07-1.33-.88-2.62-1.74-3.1-2.07-6.22-4.07-9.07-6.47-.76-.63-1.49-1.29-2.22-1.94,4.76,1.84,9.93,2.93,14.57,2.8.85-.02.32-1.03-.02-1.28-2.61-1.9-5.74-3.08-8.4-4.97-3.63-2.57-7.07-5.36-10.3-8.37-.73-.64-1.44-1.32-2.12-2.02.81.82,1.77,1.43,2.86,1.82.82.38,1.97.79,2.86,1.04,2.58.74,4.88,1.17,7.53.52.42-.1.45-.49.25-.81-1.53-2.39-4.96-4-7.04-5.88-3.52-3.18-7.06-6.43-9.91-10.18-1.36-1.79-2.72-3.58-4.05-5.39-.22-.29,2.84,1.05,2.42.87,2.46,1.07,4.83,2.15,7.59,2.15.45,0,.51-.46.21-.73-5.67-4.84-10.65-9.91-15.42-15.59-1.23-1.47-2.48-2.97-3.43-4.63-1.02-1.77.56-.09,1.28.36,1.77,1.1,3.23,2.03,5.3,2.43.42.08.46-.38.31-.63-2.2-3.46-4.41-6.85-6.46-10.32,0,0,0,0,0,0-2.28-3.85-4.37-7.79-5.99-12.04-.06-.17-.2-.28-.35-.35-.04-.03-.09-.04-.15-.05h0s-.09-.01-.13-.01-.09,0-.13.01h-.01c-.06.01-.1.02-.14.05-.15.07-.29.18-.35.35-3.09,8.07-7.82,15.05-12.44,22.36-.11.18-.11.46.05.58,0,0,0,0,0,0,0,0,0,0,.01,0,0,0,.02,0,.03.01.06.03.13.05.23.03,2.06-.4,3.52-1.33,5.29-2.43.06-.04.12-.08.19-.13.03-.02.06-.05.09-.07.03-.02.06-.05.1-.08.07-.06.15-.12.22-.18.71-.59,1.46-1.26.67.1-.95,1.66-2.2,3.17-3.43,4.63Z"/>
</svg>